<?xml version="1.0" encoding="iso-8859-1"?>
<!-- Uploaded to: SVG Repo, www.svgrepo.com, Generator: SVG Repo Mixer Tools -->
<!DOCTYPE svg PUBLIC "-//W3C//DTD SVG 1.1//EN" "http://www.w3.org/Graphics/SVG/1.1/DTD/svg11.dtd">
<svg fill="#000000" version="1.1" id="Capa_1" xmlns="http://www.w3.org/2000/svg" xmlns:xlink="http://www.w3.org/1999/xlink" 
	 width="800px" height="800px" viewBox="0 0 517.187 517.187"
	 xml:space="preserve">
<g>
	<path d="M425.011,3.494c-33.49,0-60.739,27.243-60.739,60.739c0,15.069,5.557,28.839,14.671,39.469l-76.828,76.819
		c-10.698-9.369-24.648-15.102-39.954-15.102c-14.561,0-27.931,5.157-38.408,13.733l-82.618-82.623
		c7.365-10.055,11.771-22.402,11.771-35.79C152.906,27.243,125.657,0,92.167,0c-33.487,0-60.73,27.243-60.73,60.739
		s27.243,60.739,60.736,60.739c12.542,0,24.21-3.821,33.901-10.365l83.992,83.995c-5.44,9.097-8.629,19.695-8.629,31.05
		c0,29.911,21.751,54.775,50.253,59.77v110.75c-28.502,4.988-50.253,29.855-50.253,59.77c0,33.496,27.249,60.739,60.736,60.739
		s60.736-27.243,60.736-60.739c0-29.914-21.752-54.775-50.254-59.77V285.922c28.502-4.988,50.254-29.858,50.254-59.77
		c0-10.598-2.743-20.561-7.53-29.247l79.818-79.815c8.819,4.994,18.974,7.879,29.814,7.879c33.49,0,60.739-27.243,60.739-60.736
		C485.75,30.736,458.501,3.494,425.011,3.494z M92.167,98.775c-20.971,0-38.039-17.064-38.039-38.042
		c0-20.98,17.062-38.042,38.039-38.042c20.98,0,38.042,17.062,38.042,38.042C130.208,81.711,113.147,98.775,92.167,98.775z
		 M300.199,456.436c0,20.978-17.059,38.042-38.039,38.042c-20.978,0-38.039-17.064-38.039-38.042s17.061-38.042,38.039-38.042
		C283.141,418.399,300.199,435.464,300.199,456.436z M262.166,264.188c-20.978,0-38.039-17.058-38.039-38.035
		c0-20.98,17.061-38.042,38.039-38.042c20.975,0,38.045,17.062,38.045,38.042C300.199,247.129,283.141,264.188,262.166,264.188z
		 M425.011,102.266c-20.978,0-38.042-17.056-38.042-38.039c0-20.98,17.064-38.042,38.042-38.042
		c20.972,0,38.042,17.061,38.042,38.042C463.046,85.21,445.982,102.266,425.011,102.266z"/>
</g>
</svg>